[Header]
FileType HTR
DataType HTRS
FileVersion 1
NumSegments 36
NumFrames 5
DataFrameRate 120
EulerRotationOrder ZYX
CalibrationUnits mm
RotationUnits Degrees
GlobalAxisofGravity Y
BoneLengthAxis Y
ScaleFactor 1.0
[SegmentNames&Hierarchy]
Hips	GLOBAL
Spine	Hips
Spine1	Spine
Spine2	Spine1
Spine3	Spine2
Neck	Spine3
Head	Neck
HeadEnd	Head
RightShoulder	Spine3
RightArm	RightShoulder
RightForeArm	RightArm
RightForeArmRoll	RightForeArm
RightHand	RightForeArmRoll
RightHandEnd	RightHand
R_FingersEnd	RightHandEnd
RightHandThumb1	RightHand
RightHandThumb2	RightHandThumb1
LeftShoulder	Spine3
LeftArm	LeftShoulder
LeftForeArm	LeftArm
LeftForeArmRoll	LeftForeArm
LeftHand	LeftForeArmRoll
LeftHandEnd	LeftHand
L_FingersEnd	LeftHandEnd
LeftHandThumb1	LeftHand
LeftHandThumb2	LeftHandThumb1
RightUpLeg	Hips
RightLeg	RightUpLeg
RightFoot	RightLeg
RightToeBase	RightFoot
RightToeBaseEnd	RightToeBase
LeftUpLeg	Hips
LeftLeg	LeftUpLeg
LeftFoot	LeftLeg
LeftToeBase	LeftFoot
LeftToeBaseEnd	LeftToeBase
[BasePosition]
Hips	0	0	0	0	0	0	1
Spine	0	0	0	-10	-0	0	1
Spine1	0	0	0	5	0	0	1
Spine2	0	0	0	5	0	0	1
Spine3	0	0	0	0	0	0	1
Neck	0	0	0	10	0	0	1
Head	0	0	0	-10	-0	0	1
HeadEnd	0	0	0	0	0	0	1
RightShoulder	0	0	0	-180	-0	-180	1
RightArm	0	0	0	0	0	0	1
RightForeArm	0	0	0	0	0	0	1
RightForeArmRoll	0	0	0	0	0	0	1
RightHand	0	0	0	0	0	0	1
RightHandEnd	0	0	0	-90	-0	0	1
R_FingersEnd	0	0	0	0	0	0	1
RightHandThumb1	0	0	0	170	-0	-15	1
RightHandThumb2	0	0	0	0	0	0	1
LeftShoulder	0	0	0	0	0	0	1
LeftArm	0	0	0	0	0	0	1
LeftForeArm	0	0	0	0	0	0	1
LeftForeArmRoll	0	0	0	0	0	0	1
LeftHand	0	0	0	0	0	0	1
LeftHandEnd	0	0	0	90	0	0	1
L_FingersEnd	0	0	0	0	0	0	1
LeftHandThumb1	0	0	0	170	-0	-15	1
LeftHandThumb2	0	0	0	0	0	0	1
RightUpLeg	0	0	0	-0	90	0	1
RightLeg	0	0	0	0	0	0	1
RightFoot	0	0	0	0	-0	-70	1
RightToeBase	0	0	0	0	-0	-20	1
RightToeBaseEnd	0	0	0	0	0	0	1
LeftUpLeg	0	0	0	-0	90	0	1
LeftLeg	0	0	0	0	0	0	1
LeftFoot	0	0	0	0	-0	-70	1
LeftToeBase	0	0	0	0	-0	-20	1
LeftToeBaseEnd	0	0	0	0	0	0	1
[Hips]
61	-5.56118679	970.7977905	-20.06880569	-88.89131927	0.128084749	0.1756693423	1.0
62	-5.593486786	970.7996826	-20.09039879	-88.89189911	0.1300704479	0.1737332791	1.0
63	-5.619282246	970.7906494	-20.10332108	-88.89595795	0.130096063	0.1772390902	1.0
64	-5.641886711	970.7773438	-20.1157589	-88.8991394	0.1290474236	0.182723701	1.0
65	-5.664614677	970.7666016	-20.13589478	-88.89710999	0.1278094351	0.1867239028	1.0
[Spine]
61	0	44.87670517	67.31505585	-0.2362265587	0.3490749896	0.07267012447	1.0
62	0	44.87670517	67.31505585	-0.231606856	0.3503693938	0.07329316437	1.0
63	0	44.87670517	67.31505585	-0.2258462012	0.3548490405	0.07434036583	1.0
64	0	44.87670517	67.31505585	-0.2208245397	0.3600456715	0.07532089949	1.0
65	0	44.87670517	67.31505585	-0.2184218168	0.3634910285	0.0757439509	1.0
[Spine1]
61	0	0	89.75341034	-0.6037749052	0.008029521443	-8.531451749e-005	1.0
62	0	0	89.75341034	-0.596395731	0.0082414262	0.0002417655924	1.0
63	0	0	89.75341034	-0.5866291523	0.00856122002	0.0005440392997	1.0
64	0	0	89.75341034	-0.5779693127	0.008877411485	0.0007674964727	1.0
65	0	0	89.75341034	-0.5739101768	0.0090785129	0.0008581269067	1.0
[Spine2]
61	0	0	89.75341034	1.38046515	0.4694567025	0.3617606461	1.0
62	0	0	89.75341034	1.375877857	0.4680145979	0.3667138815	1.0
63	0	0	89.75341034	1.36993432	0.4681716263	0.3728230596	1.0
64	0	0	89.75341034	1.365083098	0.4692988396	0.3786375225	1.0
65	0	0	89.75341034	1.363772511	0.4707671106	0.3827067912	1.0
[Spine3]
61	0	0	89.75341034	0.111545518	-0.4152987599	-0.05930038169	1.0
62	0	0	89.75341034	0.1099470258	-0.4163627326	-0.05761508271	1.0
63	0	0	89.75341034	0.1076583415	-0.4164046049	-0.0567756407	1.0
64	0	0	89.75341034	0.1057083309	-0.4158567786	-0.05659209192	1.0
65	0	0	89.75341034	0.1051258743	-0.4151513875	-0.05687447637	1.0
[Neck]
61	0	-33.65752792	235.6027069	-1.249827147	-0.03848408163	-0.1721625179	1.0
62	0	-33.65752792	235.6027069	-1.23544836	-0.04695843905	-0.1707618833	1.0
63	0	-33.65752792	235.6027069	-1.221590042	-0.05594181269	-0.166081354	1.0
64	0	-33.65752792	235.6027069	-1.209339619	-0.06384499371	-0.1600089669	1.0
65	0	-33.65752792	235.6027069	-1.199783802	-0.06907876581	-0.1544328034	1.0
[Head]
61	0	0	123.4109421	-1.023506641	-0.1976822019	-1.019024372	1.0
62	0	0	123.4109421	-1.017317295	-0.1925986409	-1.019691825	1.0
63	0	0	123.4109421	-1.01146543	-0.1886761934	-1.019499779	1.0
64	0	0	123.4109421	-1.006007552	-0.1867281199	-1.0184834	1.0
65	0	0	123.4109421	-1.000999808	-0.1875675768	-1.016678452	1.0
[HeadEnd]
61	0	0	145.2883301	0	0	0	1.0
62	0	0	145.2883301	0	0	0	1.0
63	0	0	145.2883301	0	0	0	1.0
64	0	0	145.2883301	0	0	0	1.0
65	0	0	145.2883301	0	0	0	1.0
[RightShoulder]
61	-30.74827576	-51.24713135	166.0407104	-4.419882774	-5.980667114	0.8830828667	1.0
62	-30.74827576	-51.24713135	166.0407104	-4.4165411	-5.984796524	0.8907177448	1.0
63	-30.74827576	-51.24713135	166.0407104	-4.412584305	-5.990329742	0.8990755081	1.0
64	-30.74827576	-51.24713135	166.0407104	-4.408862591	-5.996853828	0.9063988328	1.0
65	-30.74827576	-51.24713135	166.0407104	-4.406228542	-6.003954411	0.9109308124	1.0
[RightArm]
61	152.7164459	0	0	-24.60361099	-69.34633636	4.200936794	1.0
62	152.7164459	0	0	-24.63236237	-69.36088562	4.223238945	1.0
63	152.7164459	0	0	-24.67597389	-69.3742218	4.25071907	1.0
64	152.7164459	0	0	-24.72013283	-69.3860321	4.274986744	1.0
65	152.7164459	0	0	-24.75052261	-69.39595795	4.287650585	1.0
[RightForeArm]
61	297.8946228	0	0	0	0	-31.26594925	1.0
62	297.8946228	0	0	0	0	-31.26647568	1.0
63	297.8946228	0	0	0	0	-31.26902771	1.0
64	297.8946228	0	0	0	0	-31.27210617	1.0
65	297.8946228	0	0	0	0	-31.27422142	1.0
[RightForeArmRoll]
61	122.9768982	0	0	4.13812685	0	0	1.0
62	122.9768982	0	0	4.12963295	0	0	1.0
63	122.9768982	0	0	4.141733646	0	0	1.0
64	122.9768982	0	0	4.172911644	0	0	1.0
65	122.9768982	0	0	4.221646309	0	0	1.0
[RightHand]
61	127.1009369	0	0	0	7.831616402	-2.95989418	1.0
62	127.1009369	0	0	-5.276515367e-006	7.842861176	-2.950825691	1.0
63	127.1009369	0	0	-1.162063836e-005	7.883340359	-2.940262794	1.0
64	127.1009369	0	0	-1.613795939e-005	7.933992386	-2.935029984	1.0
65	127.1009369	0	0	-1.593407251e-005	7.975758076	-2.94195199	1.0
[RightHandEnd]
61	72.05677795	0	0	0	0	0	1.0
62	72.05677795	0	0	0	0	0	1.0
63	72.05677795	0	0	0	0	0	1.0
64	72.05677795	0	0	0	0	0	1.0
65	72.05677795	0	0	0	0	0	1.0
[R_FingersEnd]
61	72.05677795	0	0	0	0	0	1.0
62	72.05677795	0	0	0	0	0	1.0
63	72.05677795	0	0	0	0	0	1.0
64	72.05677795	0	0	0	0	0	1.0
65	72.05677795	0	0	0	0	0	1.0
[RightHandThumb1]
61	28.82271004	-48.03784943	19.2151413	0	0	0	1.0
62	28.82271004	-48.03784943	19.2151413	0	0	0	1.0
63	28.82271004	-48.03784943	19.2151413	0	0	0	1.0
64	28.82271004	-48.03784943	19.2151413	0	0	0	1.0
65	28.82271004	-48.03784943	19.2151413	0	0	0	1.0
[RightHandThumb2]
61	72.05677795	0	0	0	0	0	1.0
62	72.05677795	0	0	0	0	0	1.0
63	72.05677795	0	0	0	0	0	1.0
64	72.05677795	0	0	0	0	0	1.0
65	72.05677795	0	0	0	0	0	1.0
[LeftShoulder]
61	30.74827576	-51.24713135	166.0407104	5.385061264	6.109817982	2.960987091	1.0
62	30.74827576	-51.24713135	166.0407104	5.374695778	6.097157478	2.955792904	1.0
63	30.74827576	-51.24713135	166.0407104	5.356397629	6.072967052	2.950369358	1.0
64	30.74827576	-51.24713135	166.0407104	5.338339806	6.047362804	2.946958542	1.0
65	30.74827576	-51.24713135	166.0407104	5.328691959	6.030460835	2.947802305	1.0
[LeftArm]
61	152.7164459	0	0	3.720276833	68.67024231	-34.78876877	1.0
62	152.7164459	0	0	3.684616566	68.68710327	-34.76037598	1.0
63	152.7164459	0	0	3.625040293	68.71905518	-34.71680832	1.0
64	152.7164459	0	0	3.569231749	68.75125122	-34.67312622	1.0
65	152.7164459	0	0	3.544875145	68.76885986	-34.64441299	1.0
[LeftForeArm]
61	297.8946228	0	0	0	0	-19.24474144	1.0
62	297.8946228	0	0	0	0	-19.25125885	1.0
63	297.8946228	0	0	0	0	-19.2671566	1.0
64	297.8946228	0	0	0	0	-19.28367043	1.0
65	297.8946228	0	0	0	0	-19.29203415	1.0
[LeftForeArmRoll]
61	122.9768982	0	0	-5.555743217	0	0	1.0
62	122.9768982	0	0	-5.394529819	0	0	1.0
63	122.9768982	0	0	-5.146162987	0	0	1.0
64	122.9768982	0	0	-4.882987976	0	0	1.0
65	122.9768982	0	0	-4.677352428	0	0	1.0
[LeftHand]
61	127.1009369	0	0	0	-21.62195587	0.3949881196	1.0
62	127.1009369	0	0	-0.000186600606	-21.47665405	0.5080209374	1.0
63	127.1009369	0	0	-0.0004578955704	-21.2459507	0.6847627163	1.0
64	127.1009369	0	0	-0.000697750831	-21.01612473	0.8691965938	1.0
65	127.1009369	0	0	-0.0007900321507	-20.87344933	1.005305529	1.0
[LeftHandEnd]
61	72.05677795	0	0	0	0	0	1.0
62	72.05677795	0	0	0	0	0	1.0
63	72.05677795	0	0	0	0	0	1.0
64	72.05677795	0	0	0	0	0	1.0
65	72.05677795	0	0	0	0	0	1.0
[L_FingersEnd]
61	72.05677795	0	0	0	0	0	1.0
62	72.05677795	0	0	0	0	0	1.0
63	72.05677795	0	0	0	0	0	1.0
64	72.05677795	0	0	0	0	0	1.0
65	72.05677795	0	0	0	0	0	1.0
[LeftHandThumb1]
61	28.82271004	-48.03784943	-19.2151413	0	0	0	1.0
62	28.82271004	-48.03784943	-19.2151413	0	0	0	1.0
63	28.82271004	-48.03784943	-19.2151413	0	0	0	1.0
64	28.82271004	-48.03784943	-19.2151413	0	0	0	1.0
65	28.82271004	-48.03784943	-19.2151413	0	0	0	1.0
[LeftHandThumb2]
61	72.05677795	0	0	0	0	0	1.0
62	72.05677795	0	0	0	0	0	1.0
63	72.05677795	0	0	0	0	0	1.0
64	72.05677795	0	0	0	0	0	1.0
65	72.05677795	0	0	0	0	0	1.0
[RightUpLeg]
61	-91.21989441	0	-26.64850616	9.385303497	4.276107311	-0.8594515324	1.0
62	-91.21989441	0	-26.64850616	9.369613647	4.269963264	-0.848333478	1.0
63	-91.21989441	0	-26.64850616	9.343806267	4.272071362	-0.8295944929	1.0
64	-91.21989441	0	-26.64850616	9.31983757	4.277564049	-0.8130629063	1.0
65	-91.21989441	0	-26.64850616	9.309661865	4.281574249	-0.8085669875	1.0
[RightLeg]
61	402.8824463	0	0	0	0	14.7171793	1.0
62	402.8824463	0	0	0	0	14.69451904	1.0
63	402.8824463	0	0	0	0	14.66302776	1.0
64	402.8824463	0	0	0	0	14.63313961	1.0
65	402.8824463	0	0	0	0	14.61528873	1.0
[RightFoot]
61	435.9781189	0	0	4.540110111	-1.668358088	-14.93636513	1.0
62	435.9781189	0	0	4.529541016	-1.658112764	-14.93005657	1.0
63	435.9781189	0	0	4.512150764	-1.652729988	-14.92386246	1.0
64	435.9781189	0	0	4.494633675	-1.651617527	-14.91830063	1.0
65	435.9781189	0	0	4.483687401	-1.654183626	-14.91388798	1.0
[RightToeBase]
61	183.1846619	0	0	0	0	0.7025553584	1.0
62	183.1846619	0	0	0	0	0.6995937228	1.0
63	183.1846619	0	0	0	0	0.6887623072	1.0
64	183.1846619	0	0	0	0	0.6757363081	1.0
65	183.1846619	0	0	0	0	0.6661908031	1.0
[RightToeBaseEnd]
61	73.79586792	0	0	0	0	0	1.0
62	73.79586792	0	0	0	0	0	1.0
63	73.79586792	0	0	0	0	0	1.0
64	73.79586792	0	0	0	0	0	1.0
65	73.79586792	0	0	0	0	0	1.0
[LeftUpLeg]
61	91.21989441	0	-26.64850616	0.5105944872	-5.129467964	0.03664946184	1.0
62	91.21989441	0	-26.64850616	0.5172203779	-5.132540703	0.0446861051	1.0
63	91.21989441	0	-26.64850616	0.5252177119	-5.127744198	0.06089866161	1.0
64	91.21989441	0	-26.64850616	0.5343654752	-5.120049477	0.07695192099	1.0
65	91.21989441	0	-26.64850616	0.5444426537	-5.114427567	0.08451068401	1.0
[LeftLeg]
61	402.8824463	0	0	0	0	11.59699249	1.0
62	402.8824463	0	0	0	0	11.58170319	1.0
63	402.8824463	0	0	0	0	11.56006336	1.0
64	402.8824463	0	0	0	0	11.53670979	1.0
65	402.8824463	0	0	0	0	11.51627922	1.0
[LeftFoot]
61	435.9781189	0	0	-7.913534164	0.0256347619	-12.76455402	1.0
62	435.9781189	0	0	-7.907290936	0.01797986031	-12.75993061	1.0
63	435.9781189	0	0	-7.888467789	0.001266053878	-12.75389099	1.0
64	435.9781189	0	0	-7.867456436	-0.01895642653	-12.74692917	1.0
65	435.9781189	0	0	-7.85464716	-0.03713735193	-12.73953438	1.0
[LeftToeBase]
61	183.1846619	0	0	0	0	0.9145858288	1.0
62	183.1846619	0	0	0	0	0.9148430824	1.0
63	183.1846619	0	0	0	0	0.9165484905	1.0
64	183.1846619	0	0	0	0	0.9177783728	1.0
65	183.1846619	0	0	0	0	0.9166096449	1.0
[LeftToeBaseEnd]
61	73.79586792	0	0	0	0	0	1.0
62	73.79586792	0	0	0	0	0	1.0
63	73.79586792	0	0	0	0	0	1.0
64	73.79586792	0	0	0	0	0	1.0
65	73.79586792	0	0	0	0	0	1.0
[EndOfFile]
